<svg width="40" height="40" viewBox="0 0 40 40" fill="none" xmlns="http://www.w3.org/2000/svg">
<path fill-rule="evenodd" clip-rule="evenodd" d="M10.0154 7.37673C10.5579 3.50801 13.7239 0.5 17.7913 0.5C21.8704 0.5 24.941 3.51932 25.4725 7.37673H28.1063C30.6471 7.37673 32.7068 9.43641 32.7068 11.9771V14.6838C36.5553 15.2068 39.5835 18.204 39.5835 22.2922C39.5835 26.3687 36.5668 29.4612 32.7068 29.9953V34.8996C32.7068 37.4403 30.6471 39.5 28.1063 39.5H20.8635V35.3135C20.8635 33.3309 19.5945 31.891 17.7913 31.891C15.9639 31.891 14.6235 33.3577 14.6235 35.3135V39.5H5.18391C2.64317 39.5 0.583496 37.4403 0.583496 34.8996V25.46H4.77003C6.7258 25.46 8.19248 24.1196 8.19248 22.2922C8.19248 20.489 6.75259 19.22 4.77003 19.22H0.583496V11.9771C0.583496 9.43641 2.64317 7.37673 5.1839 7.37673H10.0154ZM17.7913 5.11633C15.9455 5.11633 14.5499 6.6028 14.5499 8.53878V11.9931H5.19982V14.614C9.39399 14.8152 12.8088 17.9502 12.8088 22.2922C12.8088 26.6215 9.4069 29.8585 5.19982 30.0658V34.8837H10.0177C10.225 30.6766 13.462 27.2747 17.7913 27.2747C22.1333 27.2747 25.2683 30.6895 25.4695 34.8837H28.0904V25.46H31.5447C33.5005 25.46 34.9672 24.1196 34.9672 22.2922C34.9672 20.489 33.5273 19.22 31.5447 19.22H28.0904V11.9931H20.9371V8.53878C20.9371 6.57696 19.6131 5.11633 17.7913 5.11633Z" fill="#C7D0E1"/>
</svg>
