<svg width="36" height="36" viewBox="0 0 36 36" fill="none" xmlns="http://www.w3.org/2000/svg">
<path fill-rule="evenodd" clip-rule="evenodd" d="M11.3149 9.34775H4.24653C3.55809 9.34775 3 9.90584 3 10.5943V14.28H3.86449C7.0226 14.28 10.0237 16.4838 10.0237 20.1159C10.0237 23.6841 7.09287 26.04 3.86449 26.04H3V31.7535C3 32.4419 3.55809 33 4.24653 33H9.96V32.1355C9.96 28.9071 12.3159 25.9763 15.8841 25.9763C19.5162 25.9763 21.72 28.9774 21.72 32.1355V33H25.4057C26.0942 33 26.6522 32.4419 26.6522 31.7535V24.6129L29.2411 24.2547C31.4545 23.9485 33 22.2492 33 20.1159C33 18.0168 31.4927 16.3704 29.2483 16.0654L26.6522 15.7126V10.5943C26.6522 9.90585 26.0942 9.34775 25.4057 9.34775H20.3596L20.0026 6.75728C19.6966 4.53683 18.0096 3 15.8841 3C13.7249 3 11.9844 4.5741 11.6773 6.76442L11.3149 9.34775ZM18.72 36V32.1355C18.72 30.3054 17.5486 28.9763 15.8841 28.9763C14.1973 28.9763 12.96 30.3302 12.96 32.1355V36H4.24653C1.90124 36 0 34.0988 0 31.7535V23.04H3.86449C5.66982 23.04 7.02367 21.8027 7.02367 20.1159C7.02367 18.4514 5.69455 17.28 3.86449 17.28H0V10.5943C0 8.24899 1.90124 6.34775 4.24653 6.34775H8.70633C9.20717 2.77663 12.1296 0 15.8841 0C19.6494 0 22.4838 2.78706 22.9745 6.34775H25.4057C27.751 6.34775 29.6522 8.24899 29.6522 10.5943V13.0927C33.2047 13.5755 36 16.3421 36 20.1159C36 23.8788 33.2154 26.7334 29.6522 27.2264V31.7535C29.6522 34.0988 27.751 36 25.4057 36H18.72Z" fill="white"/>
</svg>
