<svg width="52" height="52" viewBox="0 0 52 52" fill="none" xmlns="http://www.w3.org/2000/svg">
<path d="M0 5.41663C0 3.6217 1.45507 2.16663 3.25 2.16663H40.0833C41.8783 2.16663 43.3333 3.6217 43.3333 5.41663C43.3333 7.21155 41.8783 8.66663 40.0833 8.66663H3.25C1.45507 8.66663 0 7.21155 0 5.41663Z" fill="#C7D0E1"/>
<path d="M0 26C0 24.2051 1.45507 22.75 3.25 22.75H31.4167C33.2116 22.75 34.6667 24.2051 34.6667 26C34.6667 27.7949 33.2116 29.25 31.4167 29.25H3.25C1.45507 29.25 0 27.7949 0 26Z" fill="#C7D0E1"/>
<path d="M0 46.5834C0 44.7884 1.45507 43.3334 3.25 43.3334H48.75C50.5449 43.3334 52 44.7884 52 46.5834C52 48.3783 50.5449 49.8334 48.75 49.8334H3.25C1.45507 49.8334 0 48.3783 0 46.5834Z" fill="#C7D0E1"/>
</svg>
