<svg width="36" height="36" viewBox="0 0 36 36" fill="none" xmlns="http://www.w3.org/2000/svg">
<path fill-rule="evenodd" clip-rule="evenodd" d="M12.6667 12C12.3333 12 12 12.1528 12 12.6667V15.7639C12 16.2625 11.4986 16.6667 11 16.6667C10.5014 16.6667 10 16.2625 10 15.7639V12.1528C10 10.9638 10.9638 10 12.1528 10H15.7639C16.2625 10 16.6667 10.5014 16.6667 11C16.6667 11.4986 16.2625 12 15.7639 12H12.6667Z" fill="#647696"/>
<path fill-rule="evenodd" clip-rule="evenodd" d="M24 12.6667C24 12.3333 23.8472 12 23.3333 12L20.2361 12C19.7375 12 19.3333 11.4986 19.3333 11C19.3333 10.5014 19.7375 10 20.2361 10L23.8472 10C25.0362 10 26 10.9638 26 12.1528L26 15.7639C26 16.2625 25.4986 16.6667 25 16.6667C24.5014 16.6667 24 16.2625 24 15.7639L24 12.6667Z" fill="#647696"/>
<path fill-rule="evenodd" clip-rule="evenodd" d="M24 23.3333C24 23.6667 23.8472 24 23.3333 24L20.2361 24C19.7375 24 19.3333 24.5014 19.3333 25C19.3333 25.4986 19.7375 26 20.2361 26L23.8472 26C25.0362 26 26 25.0362 26 23.8472L26 20.2361C26 19.7375 25.4986 19.3333 25 19.3333C24.5014 19.3333 24 19.7375 24 20.2361L24 23.3333Z" fill="#647696"/>
<path fill-rule="evenodd" clip-rule="evenodd" d="M12.6667 24C12.3333 24 12 23.8472 12 23.3333L12 20.2361C12 19.7375 11.4986 19.3333 11 19.3333C10.5014 19.3333 10 19.7375 10 20.2361L10 23.8472C10 25.0362 10.9638 26 12.1528 26L15.7639 26C16.2625 26 16.6667 25.4986 16.6667 25C16.6667 24.5014 16.2625 24 15.7639 24L12.6667 24Z" fill="#647696"/>
</svg>
