<svg width="52" height="52" viewBox="0 0 52 52" fill="none" xmlns="http://www.w3.org/2000/svg">
<path d="M44.8708 19.396L43.9868 17.2536C47.0184 10.2596 46.8208 10.0516 46.228 9.4536L42.354 5.59L41.9692 5.2572H41.522C41.2828 5.2572 40.5808 5.2572 34.6892 7.982L32.5208 7.0876C29.718 0 29.432 0 28.6 0H23.1452C22.3236 0 22.0064 0 19.4116 7.1136L17.2536 8.008C13.2756 6.292 10.9408 5.408 10.3116 5.408H9.7916L5.6316 9.568C4.992 10.218 4.7684 10.4312 7.9768 17.316L7.0928 19.4532C0 22.2508 0 22.5212 0 23.4V28.8496C0 29.7076 0 30.0092 7.1188 32.6144L8.0028 34.7464C4.9712 41.7404 5.174 41.9484 5.7616 42.5464L9.6356 46.4152L10.0204 46.7532H10.4728C10.7068 46.7532 11.4036 46.7532 17.3004 44.0232L19.4636 44.9228C22.2664 52 22.5524 52 23.4 52H28.8444C29.6816 52 29.978 52 32.5832 44.8916L34.7516 43.9972C38.7296 45.7132 41.054 46.5972 41.6832 46.5972H42.2032L46.4048 42.4008C47.0028 41.7872 47.2108 41.574 44.0232 34.7152L44.902 32.578C52 29.7492 52 29.4528 52 28.6V23.1504C52 22.2924 52 21.9908 44.8708 19.396ZM26 35.0948C24.1991 35.0989 22.4374 34.5686 20.9381 33.5709C19.4388 32.5733 18.2692 31.1532 17.5774 29.4905C16.8856 27.8277 16.7027 25.9971 17.0519 24.2303C17.4011 22.4636 18.2667 20.8402 19.539 19.5657C20.8114 18.2911 22.4333 17.4228 24.1994 17.0706C25.9655 16.7183 27.7965 16.8981 29.4604 17.587C31.1243 18.276 32.5464 19.4431 33.5466 20.9407C34.5469 22.4384 35.0802 24.1991 35.0792 26C35.0751 28.4081 34.1177 30.7167 32.4164 32.4209C30.715 34.1252 28.4081 35.0866 26 35.0948Z" fill="#C7D0E1"/>
</svg>
