<svg width="54" height="54" viewBox="0 0 54 54" fill="none" xmlns="http://www.w3.org/2000/svg">
<g id="Asssets">
<path id="Vector" d="M25.7978 6.26082L19.7421 12.3165C19.0831 12.9755 19.0831 14.044 19.7421 14.703L25.7933 20.7542C26.4523 21.4132 27.5208 21.4132 28.1798 20.7542L34.2355 14.6985C34.8945 14.0395 34.8945 12.9711 34.2355 12.312L28.1843 6.26082C27.5253 5.60181 26.4568 5.60181 25.7978 6.26082Z" stroke="#475161" stroke-width="2.53125" stroke-linecap="round" stroke-linejoin="round"/>
<path id="Vector_2" d="M39.3017 19.7608L33.246 25.8165C32.587 26.4755 32.587 27.544 33.246 28.203L39.2972 34.2542C39.9562 34.9133 41.0247 34.9133 41.6837 34.2542L47.7394 28.1985C48.3984 27.5395 48.3984 26.4711 47.7394 25.812L41.6882 19.7608C41.0292 19.1018 39.9607 19.1018 39.3017 19.7608Z" stroke="#475161" stroke-width="2.53125" stroke-linecap="round" stroke-linejoin="round"/>
<path id="Vector_3" d="M12.2978 19.7413L6.24207 25.797C5.58306 26.456 5.58306 27.5245 6.24207 28.1835L12.2933 34.2347C12.9523 34.8937 14.0208 34.8937 14.6798 34.2347L20.7355 28.179C21.3945 27.52 21.3945 26.4515 20.7355 25.7925L14.6843 19.7413C14.0253 19.0823 12.9568 19.0823 12.2978 19.7413Z" stroke="#475161" stroke-width="2.53125" stroke-linecap="round" stroke-linejoin="round"/>
<path id="Vector_4" d="M25.8017 33.2413L19.746 39.297C19.087 39.956 19.087 41.0245 19.746 41.6835L25.7972 47.7347C26.4562 48.3937 27.5247 48.3937 28.1837 47.7347L34.2394 41.679C34.8984 41.02 34.8984 39.9515 34.2394 39.2925L28.1882 33.2413C27.5292 32.5823 26.4607 32.5823 25.8017 33.2413Z" stroke="#475161" stroke-width="2.53125" stroke-linecap="round" stroke-linejoin="round"/>
</g>
</svg>
