<svg width="52" height="52" viewBox="0 0 52 52" fill="none" xmlns="http://www.w3.org/2000/svg">
<path fill-rule="evenodd" clip-rule="evenodd" d="M5.23595 0C3.54074 0 2.1665 1.38579 2.1665 3.09524V40.2381C2.1665 41.9475 3.54074 43.3333 5.23595 43.3333H8.6665V36.8333V9.59524V6.5L11.7359 6.5L23.6526 6.5L31.424 6.5C31.6684 6.5 31.9098 6.52939 32.1435 6.58623L27.0944 0.906574C26.5188 0.326104 25.7381 0 24.924 0H5.23595Z" fill="#DDE3EE"/>
<path fill-rule="evenodd" clip-rule="evenodd" d="M10.833 11.7619C10.833 10.0524 12.2072 8.66663 13.9025 8.66663H33.5905C34.4046 8.66663 35.1853 8.99273 35.761 9.5732L46.7673 21.9542C47.3429 22.5346 47.6663 23.3219 47.6663 24.1428V48.9047C47.6663 50.6142 46.2921 52 44.5969 52H13.9025C12.2072 52 10.833 50.6142 10.833 48.9047V11.7619Z" fill="#C7D0E1"/>
</svg>
