<svg width="40" height="41" viewBox="0 0 40 41" fill="none" xmlns="http://www.w3.org/2000/svg">
<path d="M27.1477 14.1477C27.3674 13.9281 27.3674 13.5719 27.1477 13.3523C26.9281 13.1326 26.5719 13.1326 26.3523 13.3523L20 19.7045L13.6477 13.3523C13.4281 13.1326 13.0719 13.1326 12.8523 13.3523C12.6326 13.5719 12.6326 13.9281 12.8523 14.1477L19.2045 20.5L12.8523 26.8523C12.6326 27.0719 12.6326 27.4281 12.8523 27.6477C13.0719 27.8674 13.4281 27.8674 13.6477 27.6477L20 21.2955L26.3523 27.6477C26.5719 27.8674 26.9281 27.8674 27.1477 27.6477C27.3674 27.4281 27.3674 27.0719 27.1477 26.8523L20.7955 20.5L27.1477 14.1477Z" fill="#475161"/>
</svg>
