<svg width="21" height="20" viewBox="0 0 21 20" fill="none" xmlns="http://www.w3.org/2000/svg">
<g id="Copy">
<path id="Copy_2" fill-rule="evenodd" clip-rule="evenodd" d="M7.21875 2.1875C7.13246 2.1875 7.0625 2.25746 7.0625 2.34375V15.1552C7.0625 15.2415 7.13246 15.3115 7.21875 15.3115H16.2808C16.3671 15.3115 16.4371 15.2415 16.4371 15.1552V6.40594H13.1014C12.808 6.40594 12.5702 6.16809 12.5702 5.87469V2.1875H7.21875ZM13.5077 2.85051L16.1257 5.46844H13.5077V2.85051ZM6.125 2.34375C6.125 1.73969 6.61469 1.25 7.21875 1.25H12.7799C13.07 1.25 13.3482 1.36523 13.5533 1.57034L17.0542 5.07113C17.2593 5.27625 17.3746 5.55445 17.3746 5.84454V15.1552C17.3746 15.7593 16.8849 16.249 16.2808 16.249H14.8746V17.6552C14.8746 18.2593 14.3849 18.749 13.7808 18.749H4.71875C4.11469 18.749 3.625 18.2593 3.625 17.6552V4.84375C3.625 4.23969 4.11469 3.75 4.71875 3.75H6.125V2.34375ZM6.125 4.6875H4.71875C4.63246 4.6875 4.5625 4.75746 4.5625 4.84375V17.6552C4.5625 17.7415 4.63246 17.8115 4.71875 17.8115H13.7808C13.8671 17.8115 13.9371 17.7415 13.9371 17.6552V16.249H7.21875C6.61469 16.249 6.125 15.7593 6.125 15.1552V4.6875Z" fill="#475161"/>
</g>
</svg>
