<svg width="20" height="20" viewBox="0 0 20 20" fill="none" xmlns="http://www.w3.org/2000/svg">
<g id="Copy">
<path id="Copy_2" fill-rule="evenodd" clip-rule="evenodd" d="M6.71875 2.1875C6.63246 2.1875 6.5625 2.25746 6.5625 2.34375V15.1552C6.5625 15.2415 6.63246 15.3115 6.71875 15.3115H15.7808C15.8671 15.3115 15.9371 15.2415 15.9371 15.1552V6.40594H12.6014C12.308 6.40594 12.0702 6.16809 12.0702 5.87469V2.1875H6.71875ZM13.0077 2.85051L15.6257 5.46844H13.0077V2.85051ZM5.625 2.34375C5.625 1.73969 6.11469 1.25 6.71875 1.25H12.2799C12.57 1.25 12.8482 1.36523 13.0533 1.57034L16.5542 5.07113C16.7593 5.27625 16.8746 5.55445 16.8746 5.84454V15.1552C16.8746 15.7593 16.3849 16.249 15.7808 16.249H14.3746V17.6552C14.3746 18.2593 13.8849 18.749 13.2808 18.749H4.21875C3.61469 18.749 3.125 18.2593 3.125 17.6552V4.84375C3.125 4.23969 3.61469 3.75 4.21875 3.75H5.625V2.34375ZM5.625 4.6875H4.21875C4.13246 4.6875 4.0625 4.75746 4.0625 4.84375V17.6552C4.0625 17.7415 4.13246 17.8115 4.21875 17.8115H13.2808C13.3671 17.8115 13.4371 17.7415 13.4371 17.6552V16.249H6.71875C6.11469 16.249 5.625 15.7593 5.625 15.1552V4.6875Z" fill="#475161"/>
</g>
</svg>
