<svg width="54" height="54" viewBox="0 0 54 54" fill="none" xmlns="http://www.w3.org/2000/svg">
<g id="Custom Field">
<g id="Custom Field_2">
<path fill-rule="evenodd" clip-rule="evenodd" d="M5.0625 28.2656C4.8295 28.2656 4.64062 28.4545 4.64062 28.6874V45.5624C4.64062 45.7954 4.8295 45.9843 5.0625 45.9843H48.9375C49.1705 45.9843 49.3594 45.7954 49.3594 45.5624V28.6874C49.3594 28.4545 49.1705 28.2656 48.9375 28.2656H42.1875C41.4885 28.2656 40.9219 27.6989 40.9219 26.9999C40.9219 26.301 41.4885 25.7343 42.1875 25.7343H48.9375C50.5685 25.7343 51.8906 27.0565 51.8906 28.6874V45.5624C51.8906 47.1934 50.5685 48.5156 48.9375 48.5156H5.0625C3.43153 48.5156 2.10938 47.1934 2.10938 45.5624V28.6874C2.10938 27.0565 3.43153 25.7343 5.0625 25.7343H18.5625C19.2615 25.7343 19.8281 26.301 19.8281 26.9999C19.8281 27.6989 19.2615 28.2656 18.5625 28.2656H5.0625Z" fill="#475161"/>
<path fill-rule="evenodd" clip-rule="evenodd" d="M35.7504 7.27784C36.5659 5.86538 38.372 5.38144 39.7844 6.19692L44.1687 8.72817C45.5811 9.54365 46.0651 11.3498 45.2496 12.7622L35.0718 30.3906C34.6829 31.0643 34.0439 31.5573 33.2936 31.7625L28.1777 33.1621C27.8517 33.2512 27.5036 33.2063 27.2109 33.0374C26.9183 32.8684 26.7053 32.5894 26.6196 32.2625L25.2736 27.1322C25.0763 26.3798 25.1837 25.5799 25.5726 24.9062L35.7504 7.27784ZM38.5188 8.38904C38.317 8.27255 38.059 8.34168 37.9425 8.54346L27.7648 26.1719C27.7092 26.2681 27.6938 26.3824 27.722 26.4899L28.7434 30.383L32.6257 29.321C32.7329 29.2917 32.8242 29.2212 32.8797 29.125L43.0575 11.4966C43.174 11.2948 43.1048 11.0368 42.9031 10.9203L38.5188 8.38904Z" fill="#475161"/>
</g>
</g>
</svg>
