<svg width="54" height="54" viewBox="0 0 54 54" fill="none" xmlns="http://www.w3.org/2000/svg">
<g id="Entry Editor Sidebar">
<g id="Entry Editor Sidebar_2">
<path fill-rule="evenodd" clip-rule="evenodd" d="M48.5156 8.4375C48.5156 6.80654 47.1935 5.48438 45.5625 5.48438H8.4375C6.80653 5.48438 5.48438 6.80653 5.48438 8.4375V45.5625C5.48438 47.1935 6.80653 48.5156 8.4375 48.5156H45.5625C47.1935 48.5156 48.5156 47.1935 48.5156 45.5625V8.4375ZM45.5625 8.01562C45.7955 8.01562 45.9844 8.2045 45.9844 8.4375V45.5625C45.9844 45.7955 45.7955 45.9844 45.5625 45.9844H8.4375C8.20451 45.9844 8.01562 45.7955 8.01562 45.5625V8.4375C8.01562 8.20451 8.20451 8.01562 8.4375 8.01562H45.5625Z" fill="#475161"/>
<path fill-rule="evenodd" clip-rule="evenodd" d="M33.75 5.48438C33.051 5.48438 32.4844 6.05101 32.4844 6.75V47.25C32.4844 47.949 33.051 48.5156 33.75 48.5156C34.449 48.5156 35.0156 47.949 35.0156 47.25V6.75C35.0156 6.05101 34.449 5.48438 33.75 5.48438Z" fill="#475161"/>
<path fill-rule="evenodd" clip-rule="evenodd" d="M26.5781 16.875C26.5781 16.176 26.0115 15.6094 25.3125 15.6094L15.1875 15.6094C14.4885 15.6094 13.9219 16.176 13.9219 16.875C13.9219 17.574 14.4885 18.1406 15.1875 18.1406L25.3125 18.1406C26.0115 18.1406 26.5781 17.574 26.5781 16.875Z" fill="#475161"/>
<path fill-rule="evenodd" clip-rule="evenodd" d="M26.5781 27C26.5781 26.301 26.0115 25.7344 25.3125 25.7344L15.1875 25.7344C14.4885 25.7344 13.9219 26.301 13.9219 27C13.9219 27.699 14.4885 28.2656 15.1875 28.2656L25.3125 28.2656C26.0115 28.2656 26.5781 27.699 26.5781 27Z" fill="#475161"/>
<path fill-rule="evenodd" clip-rule="evenodd" d="M26.5781 37.125C26.5781 36.426 26.0115 35.8594 25.3125 35.8594H15.1875C14.4885 35.8594 13.9219 36.426 13.9219 37.125C13.9219 37.824 14.4885 38.3906 15.1875 38.3906H25.3125C26.0115 38.3906 26.5781 37.824 26.5781 37.125Z" fill="#475161"/>
</g>
</g>
</svg>
