<svg width="54" height="54" viewBox="0 0 54 54" fill="none" xmlns="http://www.w3.org/2000/svg">
<g id="Field Modifiers">
<g id="Field Modifiers_2">
<path fill-rule="evenodd" clip-rule="evenodd" d="M8.4375 18.1406C8.2045 18.1406 8.01562 18.3295 8.01562 18.5625V35.4375C8.01562 35.6705 8.2045 35.8594 8.4375 35.8594H32.0625C32.7615 35.8594 33.3281 36.426 33.3281 37.125C33.3281 37.824 32.7615 38.3906 32.0625 38.3906H8.4375C6.80653 38.3906 5.48438 37.0685 5.48438 35.4375V18.5625C5.48438 16.9315 6.80653 15.6094 8.4375 15.6094H32.0625C32.7615 15.6094 33.3281 16.176 33.3281 16.875C33.3281 17.574 32.7615 18.1406 32.0625 18.1406H8.4375ZM40.9219 16.875C40.9219 16.176 41.4885 15.6094 42.1875 15.6094H45.5625C47.1935 15.6094 48.5156 16.9315 48.5156 18.5625V35.4375C48.5156 37.0685 47.1935 38.3906 45.5625 38.3906H42.1875C41.4885 38.3906 40.9219 37.824 40.9219 37.125C40.9219 36.426 41.4885 35.8594 42.1875 35.8594H45.5625C45.7955 35.8594 45.9844 35.6705 45.9844 35.4375V18.5625C45.9844 18.3295 45.7955 18.1406 45.5625 18.1406H42.1875C41.4885 18.1406 40.9219 17.574 40.9219 16.875Z" fill="#475161"/>
<path fill-rule="evenodd" clip-rule="evenodd" d="M30.7969 10.125C30.7969 9.42601 31.3635 8.85938 32.0625 8.85938H42.1875C42.8865 8.85938 43.4531 9.42601 43.4531 10.125C43.4531 10.824 42.8865 11.3906 42.1875 11.3906H32.0625C31.3635 11.3906 30.7969 10.824 30.7969 10.125Z" fill="#475161"/>
<path fill-rule="evenodd" clip-rule="evenodd" d="M30.7969 43.875C30.7969 43.176 31.3635 42.6094 32.0625 42.6094H42.1875C42.8865 42.6094 43.4531 43.176 43.4531 43.875C43.4531 44.574 42.8865 45.1406 42.1875 45.1406H32.0625C31.3635 45.1406 30.7969 44.574 30.7969 43.875Z" fill="#475161"/>
<path fill-rule="evenodd" clip-rule="evenodd" d="M10.5469 27C10.5469 26.301 11.1135 25.7344 11.8125 25.7344H21.9375C22.6365 25.7344 23.2031 26.301 23.2031 27C23.2031 27.699 22.6365 28.2656 21.9375 28.2656H11.8125C11.1135 28.2656 10.5469 27.699 10.5469 27Z" fill="#475161"/>
<path fill-rule="evenodd" clip-rule="evenodd" d="M37.125 8.85938C37.824 8.85938 38.3906 9.42601 38.3906 10.125V43.0312C38.3906 43.7302 37.824 44.2969 37.125 44.2969C36.426 44.2969 35.8594 43.7302 35.8594 43.0312V10.125C35.8594 9.42601 36.426 8.85938 37.125 8.85938Z" fill="#475161"/>
</g>
</g>
</svg>
