<svg width="1000" height="1000" viewBox="0 0 1000 1000" fill="none" xmlns="http://www.w3.org/2000/svg">
<rect width="1000" height="1000" fill="white"/>
<path opacity="0.25" d="M62.839 494.781C72.4124 575.603 109.233 669.496 183.059 712.76C294.442 777.933 285.053 878.27 502.48 921.903C536.355 928.715 568.573 931.661 598.951 930.924C615.336 930.556 630.985 929.267 646.266 927.058C784.344 906.806 877.316 810.888 911.56 694.902C956.481 542.464 866.822 442.679 807.357 382.477C747.891 322.643 704.258 135.225 491.066 90.672C458.479 83.8602 425.156 80.3622 392.017 81.0986C316.167 82.9397 233.32 107.978 176.063 159.895C171.829 163.761 167.594 167.812 163.544 172.046C83.8268 253.788 50.1358 384.503 63.0231 494.597L62.839 494.781Z" fill="#DDE3EE"/>
<path d="M140.529 251.914C139.048 253.396 138.216 255.405 138.216 257.5C138.216 259.595 139.048 261.604 140.529 263.086C142.012 264.557 144.018 265.38 146.107 265.375C148.196 265.37 150.198 264.537 151.674 263.059C153.142 261.576 153.966 259.573 153.966 257.486C153.966 255.399 153.142 253.397 151.674 251.914C148.55 248.792 143.483 248.903 140.529 251.914ZM209.545 261.557H342.325C342.684 261.557 343.028 261.415 343.281 261.161C343.535 260.908 343.677 260.563 343.677 260.205C343.677 259.846 343.535 259.502 343.281 259.248C343.028 258.995 342.684 258.852 342.325 258.852H209.545C209.186 258.852 208.842 258.995 208.588 259.248C208.335 259.502 208.192 259.846 208.192 260.205C208.192 260.563 208.335 260.908 208.588 261.161C208.842 261.415 209.186 261.557 209.545 261.557ZM155.988 345.696C155.971 346.457 156.106 347.214 156.385 347.922C156.664 348.63 157.082 349.275 157.613 349.82C158.145 350.364 158.78 350.797 159.482 351.092C160.183 351.388 160.936 351.541 161.697 351.542C162.458 351.542 163.212 351.391 163.913 351.097C164.615 350.802 165.251 350.371 165.784 349.827C166.317 349.284 166.736 348.639 167.016 347.932C167.296 347.224 167.433 346.468 167.417 345.707C167.386 344.213 166.771 342.791 165.704 341.744C164.637 340.698 163.202 340.112 161.708 340.11C160.214 340.109 158.778 340.693 157.709 341.737C156.64 342.781 156.022 344.202 155.988 345.696ZM140.681 434.48C140.663 435.241 140.798 435.997 141.077 436.705C141.356 437.413 141.774 438.059 142.306 438.603C142.838 439.147 143.473 439.58 144.174 439.876C144.875 440.172 145.628 440.324 146.389 440.325C147.151 440.326 147.904 440.175 148.606 439.88C149.308 439.586 149.944 439.154 150.476 438.611C151.009 438.067 151.428 437.423 151.708 436.715C151.989 436.008 152.125 435.252 152.109 434.491C152.078 432.997 151.463 431.574 150.395 430.528C149.328 429.483 147.893 428.896 146.399 428.895C144.905 428.894 143.469 429.478 142.4 430.523C141.332 431.567 140.714 432.986 140.681 434.48ZM100.503 530.951C101.254 530.952 101.998 530.804 102.691 530.517C103.385 530.231 104.016 529.81 104.547 529.279C105.078 528.749 105.5 528.119 105.788 527.426C106.075 526.732 106.224 525.989 106.224 525.238C106.225 524.487 106.078 523.744 105.791 523.05C105.504 522.356 105.083 521.726 104.553 521.194C104.022 520.663 103.392 520.241 102.699 519.954C102.006 519.666 101.262 519.517 100.511 519.517C98.9952 519.516 97.5406 520.117 96.4677 521.189C95.3948 522.26 94.7914 523.714 94.7904 525.23C94.7893 526.746 95.3906 528.201 96.462 529.274C97.5334 530.346 98.9871 530.95 100.503 530.951ZM86.624 377.099C89.1658 378.72 91.6049 380.497 93.9275 382.419C94.204 382.645 94.5586 382.752 94.9139 382.718C95.2691 382.683 95.5963 382.509 95.824 382.234C96.0518 381.96 96.1616 381.606 96.1296 381.25C96.0977 380.895 95.9264 380.566 95.6533 380.337C93.2451 378.342 90.7156 376.498 88.0793 374.816C87.7765 374.623 87.4097 374.559 87.0594 374.636C86.7091 374.714 86.4041 374.928 86.2115 375.231C86.0188 375.534 85.9544 375.9 86.0322 376.251C86.1101 376.601 86.3212 376.906 86.624 377.099ZM947.404 454.237C948.4 453.986 949.31 453.47 950.036 452.743C950.763 452.016 951.278 451.106 951.529 450.109C951.773 449.146 951.762 448.136 951.498 447.178C951.234 446.221 950.726 445.348 950.023 444.646C949.32 443.944 948.447 443.436 947.489 443.174C946.531 442.911 945.521 442.901 944.558 443.147C943.563 443.397 942.655 443.912 941.93 444.638C941.205 445.363 940.691 446.272 940.441 447.266C940.196 448.229 940.205 449.239 940.468 450.196C940.731 451.154 941.238 452.027 941.94 452.73C942.641 453.433 943.514 453.941 944.471 454.206C945.428 454.47 946.438 454.481 947.401 454.237H947.404ZM749.822 354.369C754.584 356.792 759.063 359.736 763.177 363.146C763.454 363.375 763.81 363.484 764.168 363.45C764.525 363.415 764.854 363.241 765.083 362.964C765.311 362.687 765.42 362.33 765.386 361.973C765.352 361.616 765.177 361.286 764.9 361.058C760.633 357.523 755.988 354.47 751.05 351.956C750.732 351.809 750.369 351.791 750.037 351.906C749.706 352.021 749.432 352.26 749.273 352.573C749.115 352.886 749.083 353.248 749.186 353.583C749.289 353.919 749.518 354.201 749.825 354.371L749.822 354.369ZM901.005 292.191C902.001 291.941 902.911 291.425 903.638 290.699C904.365 289.972 904.882 289.063 905.133 288.066C905.377 287.103 905.366 286.093 905.102 285.135C904.838 284.178 904.33 283.305 903.627 282.603C902.924 281.901 902.051 281.393 901.093 281.131C900.135 280.868 899.125 280.858 898.162 281.104C897.167 281.354 896.258 281.869 895.533 282.594C894.807 283.32 894.292 284.228 894.042 285.223C893.798 286.186 893.809 287.195 894.072 288.152C894.335 289.11 894.843 289.982 895.545 290.685C896.246 291.387 897.119 291.895 898.076 292.159C899.033 292.423 900.042 292.434 901.005 292.191ZM678.529 273.137L688.257 266.112C688.405 266.01 688.531 265.879 688.628 265.727C688.725 265.576 688.791 265.406 688.821 265.228C688.852 265.051 688.847 264.869 688.806 264.694C688.765 264.518 688.69 264.352 688.584 264.206C688.479 264.06 688.345 263.937 688.191 263.843C688.037 263.75 687.866 263.688 687.688 263.661C687.51 263.635 687.328 263.644 687.153 263.689C686.979 263.734 686.815 263.813 686.671 263.921L676.947 270.946C676.795 271.047 676.665 271.177 676.564 271.329C676.464 271.481 676.395 271.652 676.363 271.832C676.33 272.011 676.334 272.195 676.374 272.373C676.414 272.551 676.49 272.718 676.597 272.866C676.703 273.014 676.839 273.139 676.995 273.233C677.151 273.327 677.325 273.388 677.505 273.414C677.686 273.439 677.87 273.428 678.046 273.38C678.222 273.333 678.386 273.25 678.529 273.137ZM628.162 227.439C628.913 227.44 629.656 227.292 630.35 227.006C631.044 226.719 631.674 226.298 632.205 225.768C632.736 225.238 633.158 224.608 633.445 223.914C633.733 223.221 633.881 222.478 633.882 221.727C633.883 220.977 633.735 220.234 633.448 219.54C633.162 218.846 632.741 218.216 632.211 217.685C631.68 217.154 631.051 216.732 630.357 216.444C629.664 216.157 628.921 216.008 628.17 216.008C626.654 216.007 625.2 216.608 624.128 217.679C623.055 218.75 622.452 220.203 622.451 221.719C622.45 223.235 623.051 224.689 624.122 225.762C625.193 226.835 626.646 227.438 628.162 227.439ZM887.063 344.276L896.793 337.251C896.941 337.149 897.068 337.018 897.165 336.866C897.262 336.714 897.328 336.545 897.358 336.367C897.389 336.19 897.383 336.008 897.343 335.832C897.302 335.657 897.227 335.491 897.121 335.345C897.015 335.199 896.882 335.076 896.728 334.982C896.574 334.889 896.403 334.827 896.224 334.8C896.046 334.774 895.865 334.783 895.69 334.828C895.515 334.872 895.352 334.951 895.208 335.06L885.478 342.082C885.33 342.185 885.203 342.316 885.106 342.467C885.009 342.619 884.944 342.789 884.913 342.966C884.883 343.144 884.888 343.326 884.929 343.501C884.969 343.677 885.045 343.843 885.15 343.988C885.256 344.134 885.39 344.258 885.544 344.351C885.697 344.445 885.869 344.507 886.047 344.533C886.225 344.56 886.407 344.551 886.581 344.506C886.756 344.461 886.92 344.382 887.063 344.273V344.276ZM583.603 286.038L593.33 279.013C593.478 278.91 593.605 278.779 593.702 278.628C593.799 278.476 593.864 278.306 593.895 278.129C593.925 277.951 593.92 277.769 593.88 277.594C593.839 277.418 593.763 277.253 593.658 277.107C593.552 276.961 593.418 276.837 593.265 276.744C593.111 276.65 592.939 276.588 592.761 276.562C592.583 276.535 592.401 276.544 592.227 276.589C592.052 276.634 591.888 276.713 591.745 276.822L582.018 283.844C581.869 283.946 581.743 284.077 581.646 284.229C581.549 284.381 581.483 284.55 581.453 284.728C581.422 284.905 581.427 285.087 581.468 285.263C581.509 285.438 581.584 285.604 581.69 285.75C581.795 285.896 581.929 286.019 582.083 286.113C582.237 286.206 582.408 286.268 582.586 286.295C582.765 286.321 582.946 286.312 583.121 286.267C583.295 286.223 583.459 286.144 583.603 286.035V286.038ZM463.295 286.476C464.292 286.225 465.202 285.709 465.929 284.983C466.656 284.257 467.172 283.347 467.423 282.351C467.667 281.388 467.657 280.378 467.393 279.42C467.129 278.462 466.62 277.589 465.917 276.887C465.215 276.185 464.341 275.678 463.383 275.415C462.425 275.152 461.415 275.143 460.452 275.388C459.458 275.638 458.549 276.152 457.824 276.877C457.098 277.602 456.583 278.51 456.333 279.505C456.087 280.468 456.097 281.478 456.359 282.436C456.622 283.394 457.13 284.267 457.832 284.97C458.534 285.673 459.407 286.181 460.364 286.445C461.322 286.709 462.332 286.72 463.295 286.476ZM280.727 205.677C281.477 205.678 282.221 205.531 282.915 205.244C283.609 204.957 284.239 204.536 284.77 204.006C285.302 203.475 285.723 202.845 286.011 202.152C286.299 201.459 286.447 200.715 286.448 199.964C286.448 199.214 286.301 198.47 286.014 197.776C285.727 197.082 285.307 196.452 284.776 195.921C284.246 195.389 283.616 194.968 282.922 194.68C282.229 194.392 281.486 194.244 280.735 194.243C279.219 194.242 277.764 194.844 276.691 195.915C275.618 196.986 275.015 198.44 275.014 199.956C275.013 201.473 275.614 202.927 276.685 204C277.757 205.073 279.21 205.676 280.727 205.677ZM216.54 165.56C221.301 167.983 225.779 170.927 229.892 174.337C230.168 174.566 230.524 174.677 230.881 174.643C231.239 174.61 231.568 174.436 231.797 174.16C232.026 173.884 232.137 173.528 232.103 173.171C232.07 172.813 231.896 172.484 231.62 172.254C227.353 168.717 222.707 165.662 217.768 163.147C217.609 163.066 217.437 163.018 217.259 163.004C217.082 162.99 216.904 163.012 216.735 163.067C216.566 163.122 216.41 163.21 216.275 163.325C216.14 163.441 216.029 163.582 215.949 163.74C215.868 163.899 215.82 164.072 215.806 164.249C215.792 164.426 215.814 164.604 215.869 164.773C215.924 164.942 216.012 165.098 216.127 165.233C216.243 165.368 216.381 165.479 216.54 165.56ZM290.105 440.085L299.829 433.06C299.981 432.959 300.111 432.829 300.212 432.677C300.312 432.525 300.381 432.354 300.414 432.174C300.446 431.995 300.442 431.811 300.402 431.633C300.362 431.455 300.286 431.288 300.179 431.14C300.073 430.992 299.937 430.867 299.781 430.773C299.625 430.679 299.452 430.618 299.271 430.592C299.091 430.567 298.907 430.578 298.731 430.626C298.555 430.673 298.39 430.756 298.247 430.869L288.52 437.891C288.371 437.993 288.245 438.124 288.148 438.276C288.051 438.428 287.985 438.597 287.955 438.775C287.924 438.952 287.93 439.134 287.97 439.31C288.011 439.485 288.086 439.651 288.192 439.797C288.298 439.943 288.431 440.066 288.585 440.16C288.739 440.253 288.91 440.315 289.088 440.342C289.267 440.368 289.448 440.359 289.623 440.314C289.797 440.27 289.961 440.193 290.105 440.085ZM369.04 461.822C373.802 464.245 378.282 467.188 382.397 470.597C382.673 470.826 383.029 470.935 383.387 470.901C383.744 470.867 384.073 470.692 384.301 470.416C384.53 470.139 384.639 469.783 384.605 469.426C384.571 469.069 384.396 468.74 384.12 468.511C379.852 464.975 375.207 461.922 370.268 459.406C369.949 459.259 369.586 459.241 369.255 459.356C368.923 459.471 368.649 459.711 368.491 460.024C368.332 460.336 368.301 460.699 368.404 461.034C368.506 461.369 368.733 461.652 369.04 461.822Z" fill="#DDE3EE"/>
<path d="M790 465.5L800.5 475.5L821 484.5L844 478.5L859.5 463.5L876 469.5L895 478.5L915 509.5L926.5 541.5L941 584.5L937 603L917.5 706H753.5L771 584.5L763.5 599L744.5 617H724L706 596L688.5 570L673.5 535L661 502.5L702 487L706 493.5L719.5 515L735.5 546.5L740 552L744.5 522.5L763.5 484.5L790 465.5Z" fill="#6E6B86"/>
<path d="M791.5 339L823 337L849.5 342L869.5 355L876.5 367L881 380.5L880 411L896.5 421L898.5 430L893.5 447L896.5 454.5L909 460.5L919 467.5L922.5 478L919 516.5L909 497L895 478L867.5 466L840.5 460.5L832.5 434L818.5 447H806V464L791.5 466L782 469L754.5 494.5L748.5 484.5L745.5 471L748.5 458.5L754.5 447L757.5 404.5L768 390L779.5 381L773 369V355L777.5 347L791.5 339Z" fill="#EDEBFD"/>
<path d="M782 376.5L808.5 384L826.5 378L837 382L840.5 399.5L846.5 406.5V412L840 416.5L830.5 437L817.5 447.5L802.5 445.5L788.5 423.5L780.5 399L782 376.5Z" fill="white"/>
<path d="M856 339L866 336L874 339.5L876 356L870.5 358.5L855 344.5L856 339Z" fill="#EDEBFD"/>
<rect x="287" y="453" width="74" height="29" rx="14.5" fill="#DDE3EE"/>
<rect x="391" y="453" width="74" height="29" rx="14.5" fill="#DDE3EE"/>
<rect x="495" y="453" width="74" height="29" rx="14.5" fill="#DDE3EE"/>
<rect x="251" y="549" width="177" height="106" rx="9.5" fill="#DDE3EE"/>
<rect x="510" y="599" width="24" height="56" fill="#EDEBFD"/>
<rect x="541" y="561" width="24" height="94" fill="#DDE3EE"/>
<rect x="572" y="583" width="24" height="72" fill="#EDEBFD"/>
<rect x="603" y="534" width="24" height="121" fill="#DDE3EE"/>
<rect x="635" y="571" width="24" height="84" fill="#EDEBFD"/>
<rect x="216" y="282" width="488" height="82" fill="#DDE3EE"/>
<path d="M66 707H972" stroke="#475161" stroke-width="4" stroke-linecap="round"/>
<path d="M833.5 432.5L840.5 460C909.29 472.988 907.732 487.828 937.794 573.536C940.097 580.102 940.197 587.85 938.709 594.647C933.569 618.137 923.262 674.34 916.5 705.5" stroke="#475161" stroke-width="4" stroke-linecap="round" stroke-linejoin="round"/>
<path d="M867 563L889.5 597.5L874.5 706.5" stroke="#475161" stroke-width="4" stroke-linecap="round"/>
<path d="M806 464.5L805.783 466.488C806.348 466.55 806.912 466.368 807.335 465.989C807.758 465.609 808 465.068 808 464.5H806ZM737.505 561.365C737.43 562.467 738.263 563.421 739.365 563.495C740.467 563.57 741.421 562.737 741.495 561.635L737.505 561.365ZM808 446C808 444.896 807.105 444 806 444C804.895 444 804 444.896 804 446H808ZM791 466.096L790.425 464.18L791 466.096ZM858.526 465.793C859.24 464.95 859.136 463.688 858.293 462.974C857.45 462.26 856.188 462.364 855.474 463.207L858.526 465.793ZM808 464.5V446H804V464.5H808ZM806.217 462.512C801.714 462.02 796.263 462.429 790.425 464.18L791.575 468.012C796.932 466.405 801.845 466.058 805.783 466.488L806.217 462.512ZM790.425 464.18C768.646 470.714 741.947 495.683 737.505 561.365L741.495 561.635C745.87 496.957 771.944 473.901 791.575 468.012L790.425 464.18ZM789.393 467.286C794.924 474.759 804.18 483.831 816.232 486.247C828.504 488.707 842.975 484.147 858.526 465.793L855.474 463.207C840.525 480.852 827.413 484.408 817.018 482.325C806.403 480.197 797.909 472.068 792.607 464.906L789.393 467.286Z" fill="#475161"/>
<path d="M738.259 553.484C738.802 554.446 740.022 554.785 740.984 554.241C741.945 553.698 742.285 552.478 741.741 551.516L738.259 553.484ZM703 487L704.741 486.016L703.916 484.555L702.333 485.115L703 487ZM662 501.5L661.333 499.615L659.509 500.26L660.093 502.104L662 501.5ZM771 582.5L772.98 582.785C773.122 581.797 772.513 580.855 771.553 580.578C770.594 580.302 769.577 580.776 769.172 581.689L771 582.5ZM751.02 707.215C750.863 708.308 751.622 709.322 752.715 709.48C753.808 709.637 754.822 708.878 754.98 707.785L751.02 707.215ZM741.741 551.516L704.741 486.016L701.259 487.984L738.259 553.484L741.741 551.516ZM702.333 485.115L661.333 499.615L662.667 503.386L703.667 488.886L702.333 485.115ZM660.093 502.104C669.678 532.359 686.643 576.311 706.568 601.006C716.461 613.266 727.629 621.455 739.438 619.777C751.225 618.102 762.419 606.762 772.828 583.311L769.172 581.689C758.831 604.988 748.421 614.46 738.875 615.817C729.35 617.17 719.456 610.609 709.682 598.494C690.273 574.44 673.488 531.141 663.907 500.896L660.093 502.104ZM769.02 582.215L751.02 707.215L754.98 707.785L772.98 582.785L769.02 582.215Z" fill="#475161"/>
<path d="M694.501 486.913C694.453 488.017 695.309 488.95 696.412 488.998C697.516 489.046 698.449 488.191 698.497 487.087L694.501 486.913ZM679.999 461.5L680.454 463.448C681.05 463.309 681.55 462.904 681.81 462.35C682.07 461.796 682.062 461.153 681.788 460.606L679.999 461.5ZM670.621 487.688C671.001 488.725 672.149 489.258 673.186 488.879C674.224 488.499 674.757 487.351 674.378 486.313L670.621 487.688ZM698.497 487.087C698.666 483.206 698.742 477.137 698.421 471.511C698.26 468.701 697.998 465.958 697.587 463.636C697.193 461.409 696.613 459.246 695.638 457.853L692.361 460.147C692.786 460.754 693.259 462.133 693.649 464.333C694.021 466.438 694.271 469.008 694.428 471.739C694.739 477.197 694.666 483.128 694.501 486.913L698.497 487.087ZM695.638 457.853C693.532 454.845 688.626 447.647 684.838 442.07L681.529 444.317C685.311 449.886 690.235 457.11 692.361 460.147L695.638 457.853ZM673.115 438.403C672.397 439.711 672.107 441.506 672.073 443.763L676.073 443.824C676.104 441.746 676.385 440.757 676.622 440.326L673.115 438.403ZM675.714 457.402L678.21 462.395L681.788 460.606L679.292 455.613L675.714 457.402ZM679.545 459.553C673.188 461.036 664.278 470.349 670.621 487.688L674.378 486.313C668.721 470.851 676.811 464.298 680.454 463.448L679.545 459.553ZM672.073 443.763C671.999 448.667 673.664 453.301 675.714 457.402L679.292 455.613C677.368 451.766 676.013 447.805 676.073 443.824L672.073 443.763ZM684.838 442.07C683.707 440.405 681.873 438.417 679.958 437.247C679.017 436.673 677.819 436.149 676.545 436.195C675.083 436.249 673.863 437.039 673.115 438.403L676.622 440.326C676.709 440.167 676.758 440.151 676.726 440.172C676.688 440.196 676.66 440.194 676.691 440.193C676.821 440.188 677.21 440.256 677.873 440.661C679.167 441.451 680.615 442.973 681.529 444.317L684.838 442.07Z" fill="#475161"/>
<path d="M676.443 455.004L658.086 427.682C656.113 424.744 651.278 422.41 650.935 425.932C650.58 429.589 653.434 437.498 663 454" stroke="#475161" stroke-width="4" stroke-linecap="round"/>
<path d="M658.444 464C652.61 457.833 643.644 444.6 654.444 441" stroke="#475161" stroke-width="4" stroke-linecap="round"/>
<path d="M656.443 475.5C650.776 469.833 641.743 458 650.943 456" stroke="#475161" stroke-width="4" stroke-linecap="round"/>
<path d="M669 498.5C667.167 497.5 662.7 489.1 653.5 483.5C652.722 483.026 652.014 482.572 651.366 482.137C644.271 477.38 643.963 465.898 651.392 470.113C651.6 470.23 651.802 470.359 652 470.5" stroke="#475161" stroke-width="4" stroke-linecap="round"/>
<path d="M820.143 445.794C826.691 441.712 845.571 426.776 838.5 393.501C837.947 390.897 837.335 387.76 836.809 384.983C835.965 380.526 832.828 377.377 828.32 377.886C822.487 378.545 816.752 385.417 804.447 383.237L783.225 376.723C782.831 376.602 782.415 376.836 782.314 377.236C780.661 383.799 780.274 391.917 781.311 398.605C782.207 404.382 783.428 408.786 785.277 414.332L786 416.501C797.642 447.548 810.49 448.774 815.658 447.767C817.278 447.452 818.742 446.667 820.143 445.794Z" stroke="#475161" stroke-width="4" stroke-linecap="round"/>
<path d="M804.941 403.001L800.805 416.318C800.405 417.605 801.367 418.911 802.715 418.911L806.5 418.911" stroke="#475161" stroke-width="4" stroke-linecap="round"/>
<path d="M800.509 428.068L817.513 430.315C817.749 430.346 817.88 430.603 817.768 430.812C813.696 438.407 802.429 437.098 800.206 428.772L800.133 428.497C800.069 428.26 800.267 428.036 800.509 428.068Z" stroke="#475161" stroke-width="4" stroke-linecap="round"/>
<path d="M780.986 380.767C762.597 358.467 771.047 327.847 841.525 339.601C860.178 342.712 876.681 359.183 879.931 377.813C881.277 385.525 881.922 393.297 880.674 399.441C879.63 404.578 877.572 409.951 882.21 412.396C887.225 415.039 894.809 417.682 897.41 423.574C902.68 435.511 887.078 449.351 897.41 455.268C906.268 460.34 917.794 463.809 921.123 472.967C924.171 481.348 918.69 514.561 919 519.5" stroke="#475161" stroke-width="4" stroke-linecap="round"/>
<path d="M779.957 379.944C770.49 385.913 752.462 402.706 756.084 422.134C758.589 435.569 755.074 445.846 751.015 453.253C746.398 461.679 744.069 470.899 747.339 479.933C750.014 487.324 753.267 494 756.084 494" stroke="#475161" stroke-width="4" stroke-linecap="round"/>
<circle cx="2.85518" cy="2.85518" r="2.85518" transform="matrix(-1 0 0 1 821.018 399.213)" fill="#475161"/>
<path d="M824.01 397.332C822.298 395.488 817.899 392.433 814.001 394.961" stroke="#475161" stroke-width="4" stroke-linecap="round"/>
<path d="M797.01 397.332C795.298 395.488 790.899 392.433 787.001 394.961" stroke="#475161" stroke-width="4" stroke-linecap="round"/>
<circle cx="2.85518" cy="2.85518" r="2.85518" transform="matrix(-1 0 0 1 793.773 398.922)" fill="#475161"/>
<path d="M852.107 343.075C854.908 339.738 858.649 337.501 862.448 336.794C866.233 336.089 869.711 336.959 872.205 339.053C874.699 341.147 876.159 344.422 876.12 348.271C876.081 352.135 874.526 356.207 871.725 359.544" stroke="#475161" stroke-width="4"/>
<path d="M840.5 399.5C845 402.834 852 412 840 416" stroke="#475161" stroke-width="4" stroke-linecap="round"/>
<path d="M217 706.5V282H704V487.5M704 707V595.25" stroke="#475161" stroke-width="4" stroke-linecap="round"/>
<path d="M219 364H704" stroke="#475161" stroke-width="4" stroke-linecap="round"/>
<circle cx="251" cy="324" r="15" fill="white" stroke="#475161" stroke-width="4"/>
<circle cx="296" cy="324" r="15" fill="white" stroke="#475161" stroke-width="4"/>
<circle cx="341" cy="324" r="15" fill="white" stroke="#475161" stroke-width="4"/>
<path d="M441 324H673" stroke="#475161" stroke-width="4" stroke-linecap="round"/>
<circle cx="589.5" cy="413.5" r="30.5" stroke="#475161" stroke-width="4"/>
<path d="M578 416.5L586.5 423L602 405" stroke="#475161" stroke-width="4" stroke-linecap="round" stroke-linejoin="round"/>
<path d="M207.5 401L199.5 443" stroke="#475161" stroke-width="4" stroke-linecap="round"/>
<path d="M615 430V464.5V464.5C615 484.658 598.658 501 578.5 501H303.5C283.342 501 267 484.658 267 464.5V464.5C267 444.342 283.342 428 303.5 428H441H563" stroke="#475161" stroke-width="4"/>
<path d="M262 652L288 592L328 621L355.5 570.5L390.5 611L425 589" stroke="#475161" stroke-width="4" stroke-linecap="round"/>
<circle cx="205.5" cy="422.5" r="45.5" fill="#EEF1F7"/>
<path d="M212 409.318L232.25 421.009C232.917 421.394 232.917 422.356 232.25 422.741L212 434.433" stroke="#475161" stroke-width="4" stroke-linecap="round"/>
<path d="M194.75 409.318L174.5 421.009C173.833 421.394 173.833 422.356 174.5 422.741L194.75 434.433" stroke="#475161" stroke-width="4" stroke-linecap="round"/>
<path opacity="0.5" d="M835.424 273.16C835.601 273.141 835.772 273.086 835.927 273C836.083 272.914 836.22 272.799 836.331 272.66C836.441 272.521 836.524 272.361 836.573 272.191C836.622 272.02 836.637 271.841 836.617 271.665C834.283 250.923 815.624 235.983 794.792 238.307C794.616 238.326 794.444 238.38 794.289 238.466C794.133 238.552 793.995 238.667 793.884 238.806C793.773 238.945 793.691 239.105 793.641 239.276C793.592 239.447 793.577 239.626 793.597 239.802C793.644 240.156 793.826 240.478 794.104 240.7C794.383 240.923 794.737 241.028 795.093 240.995C814.333 238.796 831.756 252.654 833.928 271.968C833.948 272.144 834.003 272.315 834.089 272.471C834.175 272.626 834.29 272.763 834.429 272.874C834.568 272.985 834.727 273.067 834.898 273.116C835.069 273.165 835.248 273.18 835.424 273.16ZM817.477 267.98C817.069 264.45 815.28 261.224 812.502 259.008C809.723 256.792 806.181 255.766 802.648 256.154C795.293 257.006 789.994 263.65 790.821 270.983C791.606 278.368 798.358 283.68 805.65 282.809C812.981 281.984 818.283 275.341 817.477 267.98ZM165.352 261.413H178.877C178.896 261.413 178.913 261.404 178.932 261.402H422.271C422.629 261.402 422.973 261.259 423.227 261.006C423.481 260.752 423.623 260.408 423.623 260.049V203.352C423.623 202.994 423.481 202.65 423.227 202.396C422.973 202.142 422.629 202 422.271 202H178.886C178.869 202 178.859 202.011 178.84 202.011H165.352C164.994 202.011 164.65 202.153 164.396 202.407C164.142 202.661 164 203.005 164 203.363V260.06C164 260.419 164.142 260.763 164.396 261.016C164.65 261.27 164.994 261.413 165.352 261.413ZM220.415 243.051C220.291 243.18 220.141 243.282 219.976 243.351C219.812 243.421 219.634 243.457 219.455 243.457C219.276 243.457 219.099 243.421 218.934 243.351C218.769 243.282 218.62 243.18 218.495 243.051L212.814 237.371C208.589 240.63 202.598 240.265 198.857 236.478C197.873 235.497 197.092 234.331 196.559 233.048C196.027 231.764 195.753 230.388 195.753 228.999C195.753 227.609 196.027 226.233 196.559 224.95C197.092 223.666 197.873 222.501 198.857 221.519C199.841 220.535 201.009 219.755 202.294 219.222C203.58 218.689 204.958 218.415 206.349 218.415C207.741 218.415 209.119 218.689 210.405 219.222C211.69 219.755 212.858 220.535 213.842 221.519C215.898 223.575 216.926 226.28 216.926 228.985C216.926 231.257 216.196 233.557 214.708 235.45L220.415 241.158C220.929 241.672 220.929 242.537 220.415 243.051ZM420.918 258.697H240.46V204.705H420.918V258.697ZM166.705 204.716H177.525V258.708H166.705V204.716Z" fill="#DDE3EE"/>
<path opacity="0.5" d="M791.563 211.166C830.972 206.713 866.443 235.043 870.879 274.425C870.919 274.782 871.099 275.108 871.379 275.333C871.66 275.557 872.018 275.66 872.375 275.621C872.732 275.581 873.058 275.401 873.282 275.12C873.507 274.84 873.61 274.482 873.57 274.125C868.961 233.228 832.141 203.876 791.263 208.474C791.086 208.494 790.915 208.549 790.759 208.635C790.603 208.721 790.465 208.837 790.354 208.976C790.243 209.115 790.161 209.275 790.112 209.446C790.062 209.617 790.047 209.796 790.067 209.973C790.119 210.324 790.303 210.642 790.581 210.863C790.858 211.084 791.209 211.194 791.563 211.166Z" fill="#DDE3EE"/>
<path opacity="0.5" d="M854.183 277.665C854.359 277.645 854.53 277.591 854.686 277.505C854.841 277.419 854.978 277.303 855.089 277.165C855.2 277.026 855.282 276.866 855.331 276.695C855.38 276.525 855.395 276.346 855.376 276.169C851.916 245.397 824.214 223.203 793.309 226.668C792.952 226.708 792.626 226.888 792.402 227.169C792.178 227.449 792.074 227.807 792.114 228.164C792.2 228.908 792.925 229.427 793.61 229.354C822.932 226.04 849.387 247.118 852.687 276.472C852.707 276.649 852.761 276.82 852.847 276.975C852.933 277.131 853.049 277.268 853.188 277.379C853.326 277.49 853.486 277.572 853.657 277.621C853.827 277.67 854.006 277.685 854.183 277.665Z" fill="#DDE3EE"/>
</svg>
