<svg width="54" height="55" viewBox="0 0 54 55" fill="none" xmlns="http://www.w3.org/2000/svg">
<g id="Full page app">
<g id="Full page app_2">
<path fill-rule="evenodd" clip-rule="evenodd" d="M7.17188 10.625C7.17188 8.99403 8.49404 7.67188 10.125 7.67188H20.4188C21.1177 7.67188 21.6844 8.23851 21.6844 8.9375C21.6844 9.63649 21.1177 10.2031 20.4188 10.2031H10.125C9.892 10.2031 9.70312 10.392 9.70312 10.625V20.9188C9.70312 21.6177 9.13649 22.1844 8.4375 22.1844C7.73851 22.1844 7.17188 21.6177 7.17188 20.9188V10.625ZM32.3156 8.9375C32.3156 8.23851 32.8823 7.67188 33.5813 7.67188H43.875C45.506 7.67188 46.8281 8.99404 46.8281 10.625V20.9188C46.8281 21.6177 46.2615 22.1844 45.5625 22.1844C44.8635 22.1844 44.2969 21.6177 44.2969 20.9188V10.625C44.2969 10.392 44.108 10.2031 43.875 10.2031H33.5813C32.8823 10.2031 32.3156 9.63649 32.3156 8.9375ZM8.4375 32.8156C9.13649 32.8156 9.70312 33.3823 9.70312 34.0813V44.375C9.70312 44.608 9.892 44.7969 10.125 44.7969H20.4188C21.1177 44.7969 21.6844 45.3635 21.6844 46.0625C21.6844 46.7615 21.1177 47.3281 20.4188 47.3281H10.125C8.49403 47.3281 7.17188 46.006 7.17188 44.375V34.0813C7.17188 33.3823 7.73851 32.8156 8.4375 32.8156ZM45.5625 32.8156C46.2615 32.8156 46.8281 33.3823 46.8281 34.0813V44.375C46.8281 46.006 45.506 47.3281 43.875 47.3281H33.5813C32.8823 47.3281 32.3156 46.7615 32.3156 46.0625C32.3156 45.3635 32.8823 44.7969 33.5813 44.7969H43.875C44.108 44.7969 44.2969 44.608 44.2969 44.375V34.0813C44.2969 33.3823 44.8635 32.8156 45.5625 32.8156Z" fill="#475161"/>
<path fill-rule="evenodd" clip-rule="evenodd" d="M17.2969 20.75C17.2969 19.119 18.619 17.7969 20.25 17.7969H33.75C35.381 17.7969 36.7031 19.119 36.7031 20.75V34.25C36.7031 35.881 35.381 37.2031 33.75 37.2031H20.25C18.619 37.2031 17.2969 35.881 17.2969 34.25V20.75ZM20.25 20.3281C20.017 20.3281 19.8281 20.517 19.8281 20.75V34.25C19.8281 34.483 20.017 34.6719 20.25 34.6719H33.75C33.983 34.6719 34.1719 34.483 34.1719 34.25V20.75C34.1719 20.517 33.983 20.3281 33.75 20.3281H20.25Z" fill="#475161"/>
</g>
</g>
</svg>
