<svg width="54" height="54" viewBox="0 0 54 54" fill="none" xmlns="http://www.w3.org/2000/svg">
<path fill-rule="evenodd" clip-rule="evenodd" d="M27.001 18.1402C22.1081 18.1402 18.1416 22.1067 18.1416 26.9996C18.1416 31.8925 22.1081 35.859 27.001 35.859C31.8939 35.859 35.8604 31.8925 35.8604 26.9996C35.8604 22.1067 31.8939 18.1402 27.001 18.1402ZM15.6104 26.9996C15.6104 20.7087 20.7101 15.609 27.001 15.609C33.2919 15.609 38.3916 20.7087 38.3916 26.9996C38.3916 33.2905 33.2919 38.3902 27.001 38.3902C20.7101 38.3902 15.6104 33.2905 15.6104 26.9996Z" fill="#475161"/>
<path fill-rule="evenodd" clip-rule="evenodd" d="M19.9044 4.89128C20.252 4.77907 20.6311 4.82251 20.9444 5.01044L25.9867 8.03584C26.6627 8.00132 27.3401 8.00133 28.0162 8.03588L33.0378 5.03078C33.3485 4.84489 33.7238 4.80092 34.069 4.90997C37.2343 5.91 40.1445 7.58602 42.598 9.82198C42.8667 10.0668 43.0171 10.4153 43.011 10.7787L42.9123 16.6425C43.2882 17.2103 43.6293 17.8005 43.9336 18.4097L49.0473 21.2528C49.363 21.4284 49.5887 21.7306 49.6675 22.0832C50.3898 25.3183 50.3974 28.6721 49.6898 31.9104C49.6121 32.2661 49.385 32.571 49.0665 32.7474L43.9331 35.5905C43.6289 36.1994 43.288 36.7892 42.9123 37.3567L43.011 43.2205C43.0171 43.5839 42.8667 43.9325 42.598 44.1773C40.1491 46.4089 37.2506 48.0901 34.0976 49.1079C33.75 49.2202 33.3709 49.1767 33.0577 48.9888L28.0153 45.9634C27.3393 45.9979 26.6619 45.9979 25.9859 45.9634L20.9642 48.9684C20.6536 49.1543 20.2782 49.1983 19.933 49.0893C16.7677 48.0892 13.8575 46.4132 11.404 44.1772C11.1353 43.9324 10.9849 43.5839 10.991 43.2204L11.0898 37.3714C10.7163 36.7973 10.3756 36.2026 10.0693 35.59L4.95475 32.7464C4.63897 32.5708 4.41328 32.2687 4.33455 31.916C3.61224 28.6809 3.60462 25.3272 4.31221 22.0888C4.38992 21.7332 4.61701 21.4282 4.93547 21.2518L10.0689 18.4087C10.3731 17.7998 10.714 17.21 11.0897 16.6425L10.991 10.7787C10.9849 10.4153 11.1353 10.0668 11.404 9.82195C13.853 7.59035 16.7514 5.9091 19.9044 4.89128ZM13.5317 11.3181L13.6274 17.001C13.6319 17.2674 13.5521 17.5285 13.3995 17.747C12.9331 18.4148 12.5247 19.1213 12.179 19.8588C12.0658 20.1001 11.8794 20.2995 11.6462 20.4286L6.67207 23.1836C6.19441 25.7055 6.20059 28.2955 6.69029 30.8152L11.648 33.5716C11.8794 33.7002 12.0646 33.8982 12.1776 34.1376C12.5301 34.8845 12.9411 35.6022 13.407 36.2841C13.5548 36.5005 13.6318 36.7574 13.6274 37.0194L13.5318 42.6811C15.4808 44.3608 17.7305 45.6562 20.1617 46.4988L25.0222 43.5902C25.245 43.4568 25.5034 43.3953 25.7624 43.4138C26.5871 43.4728 27.4149 43.4728 28.2396 43.4138C28.4991 43.3952 28.758 43.4571 28.9811 43.5909L33.8582 46.5172C36.2815 45.6607 38.5239 44.3598 40.4703 42.6811L40.3746 36.9983C40.3701 36.7318 40.4499 36.4707 40.6025 36.2522C41.0689 35.5845 41.4773 34.8779 41.8231 34.1404C41.9362 33.8991 42.1226 33.6997 42.3558 33.5706L47.33 30.8157C47.8076 28.2937 47.8014 25.7038 47.3117 23.1841L42.354 20.4276C42.1217 20.2985 41.9359 20.0994 41.8231 19.8588C41.4773 19.1213 41.0689 18.4148 40.6025 17.747C40.4499 17.5285 40.3701 17.2674 40.3746 17.001L40.4703 11.3182C38.5212 9.63844 36.2715 8.34299 33.8403 7.50043L28.9798 10.4091C28.757 10.5424 28.4986 10.604 28.2396 10.5855C27.4149 10.5265 26.5871 10.5265 25.7624 10.5855C25.5029 10.604 25.244 10.5422 25.0209 10.4083L20.1438 7.48206C17.7205 8.33853 15.4781 9.63948 13.5317 11.3181Z" fill="#475161"/>
</svg>
