<svg width="17" height="16" viewBox="0 0 17 16" fill="none" xmlns="http://www.w3.org/2000/svg">
<path fill-rule="evenodd" clip-rule="evenodd" d="M8.5 2.375C5.3934 2.375 2.875 4.8934 2.875 8C2.875 11.1066 5.3934 13.625 8.5 13.625C11.6066 13.625 14.125 11.1066 14.125 8C14.125 4.8934 11.6066 2.375 8.5 2.375ZM2.125 8C2.125 4.47918 4.97918 1.625 8.5 1.625C12.0208 1.625 14.875 4.47918 14.875 8C14.875 11.5208 12.0208 14.375 8.5 14.375C4.97918 14.375 2.125 11.5208 2.125 8Z" fill="#475161"/>
<path d="M8.5 11.875C8.84518 11.875 9.125 11.5952 9.125 11.25C9.125 10.9048 8.84518 10.625 8.5 10.625C8.15482 10.625 7.875 10.9048 7.875 11.25C7.875 11.5952 8.15482 11.875 8.5 11.875Z" fill="#475161"/>
<path fill-rule="evenodd" clip-rule="evenodd" d="M7.6868 4.78676C8.07509 4.62592 8.50236 4.58384 8.91457 4.66583C9.32678 4.74782 9.70542 4.95021 10.0026 5.2474C10.2998 5.54458 10.5022 5.92322 10.5842 6.33543C10.6662 6.74764 10.6241 7.17491 10.4632 7.5632C10.3024 7.9515 10.03 8.28337 9.68059 8.51687C9.43617 8.68019 9.16171 8.79025 8.875 8.84165V9C8.875 9.20711 8.70711 9.375 8.5 9.375C8.29289 9.375 8.125 9.20711 8.125 9V8.5C8.125 8.40054 8.16451 8.30516 8.23483 8.23484C8.30516 8.16451 8.40054 8.125 8.5 8.125C8.77195 8.125 9.03779 8.04436 9.26391 7.89327C9.49003 7.74218 9.66626 7.52744 9.77033 7.27619C9.8744 7.02494 9.90163 6.74847 9.84858 6.48175C9.79553 6.21503 9.66457 5.97003 9.47227 5.77773C9.27997 5.58543 9.03497 5.45447 8.76825 5.40142C8.50152 5.34837 8.22506 5.3756 7.97381 5.47967C7.72256 5.58374 7.50782 5.75997 7.35673 5.98609C7.20564 6.21221 7.125 6.47805 7.125 6.75C7.125 6.95711 6.95711 7.125 6.75 7.125C6.54289 7.125 6.375 6.95711 6.375 6.75C6.375 6.32971 6.49963 5.91887 6.73313 5.56941C6.96663 5.21996 7.29851 4.94759 7.6868 4.78676Z" fill="#475161"/>
</svg>
