<svg width="52" height="53" viewBox="0 0 52 53" fill="none" xmlns="http://www.w3.org/2000/svg">
<path d="M0 16.75C0 14.9551 1.45507 13.5 3.25 13.5C5.04493 13.5 6.5 14.9551 6.5 16.75V49.25C6.5 51.0449 5.04493 52.5 3.25 52.5C1.45507 52.5 0 51.0449 0 49.25V16.75Z" fill="#C7D0E1"/>
<path d="M15.1667 25.4167C15.1667 23.6218 16.6217 22.1667 18.4167 22.1667C20.2116 22.1667 21.6667 23.6218 21.6667 25.4167V49.2501C21.6667 51.045 20.2116 52.5001 18.4167 52.5001C16.6217 52.5001 15.1667 51.045 15.1667 49.2501V25.4167Z" fill="#C7D0E1"/>
<path d="M30.3333 3.75C30.3333 1.95507 31.7884 0.5 33.5833 0.5C35.3783 0.5 36.8333 1.95507 36.8333 3.75V49.25C36.8333 51.0449 35.3783 52.5 33.5833 52.5C31.7884 52.5 30.3333 51.0449 30.3333 49.25V3.75Z" fill="#C7D0E1"/>
<path d="M45.5 36.25C45.5 34.4551 46.9551 33 48.75 33C50.5449 33 52 34.4551 52 36.25V49.25C52 51.0449 50.5449 52.5 48.75 52.5C46.9551 52.5 45.5 51.0449 45.5 49.25V36.25Z" fill="#C7D0E1"/>
</svg>
