<svg width="37" height="33" viewBox="0 0 37 33" fill="none" xmlns="http://www.w3.org/2000/svg">
<g id="Bracket">
<g id="Bracket_2">
<path fill-rule="evenodd" clip-rule="evenodd" d="M12.0809 4.5C9.12961 4.5 6.73713 6.62665 6.73713 9.25V13.1918C6.73713 14.3683 5.8387 15.3583 4.61842 15.6493C4.2155 15.7453 3.875 16.0717 3.875 16.4859C3.875 16.9001 4.2155 17.2265 4.61842 17.3226C5.8387 17.6136 6.73713 18.6036 6.73713 19.7801V23.7219C6.73713 26.3453 9.12961 28.4719 12.0809 28.4719H12.125C12.5392 28.4719 12.875 28.1361 12.875 27.7219C12.875 27.3077 12.5392 26.9719 12.125 26.9719H12.0809C10.0616 26.9719 8.42463 25.5168 8.42463 23.7219V19.7801C8.42463 18.4214 7.67089 17.2193 6.51482 16.486C7.67089 15.7526 8.42463 14.5505 8.42463 13.1918V9.25C8.42463 7.45508 10.0616 6 12.0809 6H12.125C12.5392 6 12.875 5.66421 12.875 5.25C12.875 4.83579 12.5392 4.5 12.125 4.5H12.0809Z" fill="#6C5CE7"/>
<path fill-rule="evenodd" clip-rule="evenodd" d="M24.9191 4.5C27.8704 4.5 30.2629 6.62665 30.2629 9.25V13.1918C30.2629 14.3683 31.1613 15.3583 32.3816 15.6493C32.7845 15.7453 33.125 16.0717 33.125 16.4859C33.125 16.9001 32.7845 17.2265 32.3816 17.3226C31.1613 17.6136 30.2629 18.6036 30.2629 19.7801V23.7219C30.2629 26.3453 27.8704 28.4719 24.9191 28.4719H24.875C24.4608 28.4719 24.125 28.1361 24.125 27.7219C24.125 27.3077 24.4608 26.9719 24.875 26.9719H24.9191C26.9384 26.9719 28.5754 25.5168 28.5754 23.7219V19.7801C28.5754 18.4214 29.3291 17.2193 30.4852 16.486C29.3291 15.7526 28.5754 14.5505 28.5754 13.1918V9.25C28.5754 7.45508 26.9384 6 24.9191 6H24.875C24.4608 6 24.125 5.66421 24.125 5.25C24.125 4.83579 24.4608 4.5 24.875 4.5H24.9191Z" fill="#6C5CE7"/>
</g>
</g>
</svg>
