<svg width="25" height="24" viewBox="0 0 25 24" fill="none" xmlns="http://www.w3.org/2000/svg">
<g id="Trailing_Icon">
<g id="lock">
<path d="M13.0625 13.5C13.0625 13.1893 12.8107 12.9375 12.5 12.9375C12.1893 12.9375 11.9375 13.1893 11.9375 13.5V15C11.9375 15.3107 12.1893 15.5625 12.5 15.5625C12.8107 15.5625 13.0625 15.3107 13.0625 15V13.5Z" fill="#475161"/>
<path fill-rule="evenodd" clip-rule="evenodd" d="M8.36437 5.13695C9.44683 3.89985 10.9323 3.1875 12.5 3.1875C14.0677 3.1875 15.5532 3.89985 16.6356 5.13695C17.5578 6.19082 18.1274 7.55476 18.2745 9H19.25C19.6642 9 20 9.33579 20 9.75V18.75C20 19.1642 19.6642 19.5 19.25 19.5H5.75C5.33579 19.5 5 19.1642 5 18.75V9.75C5 9.33579 5.33579 9 5.75 9H6.72553C6.87261 7.55476 7.44223 6.19082 8.36437 5.13695ZM15.789 5.87777C16.5244 6.71826 17.0003 7.81633 17.1427 9H7.85735C7.99968 7.81633 8.47559 6.71826 9.21101 5.87777C10.0977 4.86443 11.2829 4.3125 12.5 4.3125C13.7171 4.3125 14.9023 4.86443 15.789 5.87777ZM6.125 10.125V18.375H18.875V10.125H6.125Z" fill="#475161"/>
</g>
</g>
</svg>
