<svg width="24" height="24" viewBox="0 0 24 24" fill="none" xmlns="http://www.w3.org/2000/svg">
<g id="Trailing_Icon">
<g id="lock">
<path d="M12.5625 13.5C12.5625 13.1893 12.3107 12.9375 12 12.9375C11.6893 12.9375 11.4375 13.1893 11.4375 13.5V15C11.4375 15.3107 11.6893 15.5625 12 15.5625C12.3107 15.5625 12.5625 15.3107 12.5625 15V13.5Z" fill="#475161"/>
<path fill-rule="evenodd" clip-rule="evenodd" d="M7.86437 5.13695C8.94683 3.89985 10.4323 3.1875 12 3.1875C13.5677 3.1875 15.0532 3.89985 16.1356 5.13695C17.0578 6.19082 17.6274 7.55476 17.7745 9H18.75C19.1642 9 19.5 9.33579 19.5 9.75V18.75C19.5 19.1642 19.1642 19.5 18.75 19.5H5.25C4.83579 19.5 4.5 19.1642 4.5 18.75V9.75C4.5 9.33579 4.83579 9 5.25 9H6.22553C6.37261 7.55476 6.94223 6.19082 7.86437 5.13695ZM15.289 5.87777C16.0244 6.71826 16.5003 7.81633 16.6427 9H7.35735C7.49968 7.81633 7.97559 6.71826 8.71101 5.87777C9.59768 4.86443 10.7829 4.3125 12 4.3125C13.2171 4.3125 14.4023 4.86443 15.289 5.87777ZM5.625 10.125V18.375H18.375V10.125H5.625Z" fill="#475161"/>
</g>
</g>
</svg>
